<?xml version="1.0" encoding="utf-8"?>
<!-- Generator: Adobe Illustrator 24.2.3, SVG Export Plug-In . SVG Version: 6.00 Build 0)  -->
<svg version="1.1" id="レイヤー_1" xmlns="http://www.w3.org/2000/svg" xmlns:xlink="http://www.w3.org/1999/xlink" x="0px"
	 y="0px" viewBox="0 0 159.4 153.5" style="enable-background:new 0 0 159.4 153.5;" xml:space="preserve">
<style type="text/css">
	.st0{fill:#FFFFFF;}
</style>
<g>
	<path class="st0" d="M19.9,146.3v-4c0-0.7-0.2-1.2-0.5-1.5s-0.9-0.4-1.9-0.5c-0.5,0-0.7-0.2-0.7-0.4c0-0.2,0.2-0.3,0.6-0.3l0.7,0
		l1.3,0c1.8,0,2.9,0,3.2,0c0.8-0.1,1.3-0.1,1.4-0.1c0.3,0,0.4,0.1,0.4,0.3c0,0.2-0.2,0.3-0.5,0.4c-0.9,0.2-1.3,0.9-1.3,1.9l0,0.6
		v5.6l0,0.6l-0.1,0.3c-0.1,0.1-0.2,0.1-0.5,0.1c-0.3,0-0.8,0.3-1.5,0.6l-1.2,0.7c-2.3,1.3-4.7,2-7.4,2c-3.5,0-6.4-1.1-8.6-3.4
		S0,144.2,0,140.7c0-3.7,1.2-6.8,3.6-9.2s5.4-3.7,9-3.7c1.4,0,2.9,0.2,4.4,0.6c1.6,0.4,2.8,0.9,3.7,1.5c0.1,0.1,0.2,0.1,0.3,0.1
		c0.1,0,0.2,0,0.3-0.1l0.4-0.3c0.1-0.1,0.2-0.1,0.2-0.1c0.2,0,0.3,0.3,0.3,0.8c0,0.3,0,0.7,0.1,1.2l0.2,1.7c0.1,0.4,0.1,0.9,0.2,1.3
		c0.1,0.2,0.1,0.4,0.1,0.5c0,0.3-0.1,0.4-0.4,0.4c-0.2,0-0.3-0.1-0.4-0.3c-0.9-1.9-2.3-3.4-4.2-4.6c-1.9-1.2-3.9-1.8-6-1.8
		c-2.7,0-4.8,1-6.5,3c-1.7,2-2.5,4.6-2.5,7.8c0,3.4,1,6.3,2.9,8.6c1.9,2.3,4.3,3.4,7.2,3.4c2.7,0,4.8-1,6.4-2.9
		C19.7,148.2,19.9,147.4,19.9,146.3z"/>
	<path class="st0" d="M36.5,140.2l4.9,7.2l0.6,0.8c1.5,2.2,2.9,3.3,4.1,3.4l0.6,0c0.2,0,0.3,0.1,0.3,0.3c0,0.2-0.3,0.3-0.8,0.5
		c-0.5,0.1-1.1,0.2-1.7,0.2c-1.1,0-2-0.3-2.8-0.9s-1.7-1.5-2.6-2.8l-4.4-6.7l-0.2-0.4c-0.3-0.5-0.7-0.7-1.4-0.7h-2.3l-0.4,0.1
		c-0.1,0.1-0.2,0.3-0.2,0.6v5.5l0,0.7c0,1,0,1.7,0.1,2.1s0.3,0.7,0.7,1c0.5,0.4,1.3,0.7,2.3,0.8c0.4,0,0.6,0.2,0.7,0.4
		c0,0.2-0.2,0.3-0.6,0.3c-0.2,0-0.5,0-1-0.1c-0.5-0.1-1.2-0.1-2.2-0.1l-1.7,0l-0.9,0c-0.4,0-0.9,0-1.4,0.1c-0.5,0-0.8,0.1-0.9,0.1
		c-0.3,0-0.4-0.1-0.4-0.4c0-0.2,0.1-0.3,0.4-0.3c0.9-0.2,1.6-0.6,1.8-1.3s0.4-2,0.4-4v-12.6l0-1.8c0-1.8-0.6-2.9-1.9-3.1l-0.8-0.1
		c-0.4-0.1-0.6-0.2-0.6-0.4c0-0.2,0.2-0.4,0.6-0.4c0.1,0,0.5,0,1.2,0.1c0.4,0,0.9,0.1,1.6,0.1c0.5,0,1.5,0,2.8-0.1
		c0.9-0.1,1.8-0.1,2.5-0.1c2.7,0,4.7,0.5,6.1,1.5c1.4,1,2.1,2.5,2.1,4.5C40.8,136.7,39.4,138.7,36.5,140.2z M31.3,139.8h2
		c1.5,0,2.7-0.4,3.6-1.3c0.9-0.8,1.3-2,1.3-3.5c0-1.7-0.6-3.1-1.8-4.2c-1.2-1.1-2.7-1.6-4.6-1.6c-0.7,0-1.2,0.1-1.4,0.3
		s-0.4,0.6-0.4,1.2l0,0.6v7.2c0,0.6,0.1,0.9,0.2,1C30.4,139.7,30.8,139.8,31.3,139.8z"/>
	<path class="st0" d="M56.3,127.7c3.7,0,6.7,1.1,9,3.4c2.3,2.3,3.5,5.2,3.5,8.7c0,3.7-1.2,6.8-3.6,9.2c-2.4,2.4-5.4,3.6-9.1,3.6
		c-3.8,0-6.8-1.1-9.2-3.4c-2.3-2.3-3.5-5.3-3.5-9c0-1.6,0.3-3.2,0.9-4.8s1.4-2.9,2.5-4c1.1-1.1,2.5-2,4.2-2.7
		C52.8,128.1,54.5,127.7,56.3,127.7z M55.2,128.9c-2.7,0-4.9,0.9-6.5,2.7c-1.6,1.8-2.4,4.3-2.4,7.4c0,3.5,1,6.5,3.1,9
		c2,2.4,4.6,3.7,7.5,3.7c2.7,0,5-1,6.7-3c1.8-2,2.7-4.5,2.7-7.5c0-3.5-1.1-6.4-3.2-8.7C61,130,58.3,128.9,55.2,128.9z"/>
	<path class="st0" d="M85.4,138.7l3.5,8.3c0.4,0.9,0.7,1.4,0.8,1.4c0.2,0,0.3-0.3,0.6-0.8c0.1-0.2,0.2-0.5,0.4-1
		c1.5-3.4,3-6.9,4.3-10.4c1.3-3.5,2-5.5,2-6.2c0-0.6-0.5-0.9-1.5-1.1c-0.6-0.1-0.8-0.3-0.8-0.6c0-0.2,0.2-0.4,0.5-0.4
		c0.1,0,0.2,0,0.3,0c0.5,0,1.2,0.1,2.1,0.1c1.1,0,1.9,0,2.4-0.1c0.4-0.1,0.7-0.1,0.8-0.1c0.3,0,0.4,0.1,0.4,0.4
		c0,0.2-0.2,0.4-0.5,0.5c-0.5,0.2-0.8,0.5-1.1,1.1l-1,2.1c-0.4,0.9-1,2.3-1.9,4.3c-0.9,2.1-1.5,3.6-2,4.7l-2.1,4.8l-1.4,3.3
		l-0.8,1.9l-0.4,0.9l-0.3,0.5c-0.3,0.6-0.6,1-0.9,1c-0.3,0-0.5-0.3-0.7-0.8l-4.4-10.2l-4.4,10.5c-0.2,0.5-0.4,0.7-0.6,0.7
		c-0.3,0-0.6-0.5-1-1.4l-7.3-17.4l-0.5-1.2c-0.6-1.6-1.2-2.7-1.7-3.3c-0.5-0.6-1.1-1-1.8-1.2l-0.7-0.2c-0.2-0.1-0.4-0.2-0.4-0.4
		c0-0.3,0.2-0.4,0.5-0.4c0.1,0,0.3,0,0.4,0c0.5,0.1,1,0.1,1.8,0.1l2.2,0l1.5,0c0.6,0,1-0.1,1.1-0.1c0.3,0,0.5,0.1,0.5,0.4
		c0,0.2-0.1,0.4-0.4,0.4c-0.7,0.2-1.1,0.6-1.1,1c0,0.6,0.4,1.8,1.3,3.8c0.4,0.9,1,2.4,1.9,4.6c0.8,2.1,1.4,3.5,1.8,4.3l1.7,3.8
		c0.2,0.4,0.3,0.7,0.4,0.8l0.2,0.4c0.1,0.3,0.2,0.4,0.3,0.4c0.1,0,0.2-0.2,0.4-0.6l0.1-0.2l3-7.1c-0.2-0.6-0.4-0.9-0.4-1.1l-1.6-3.7
		l-1.5-3.4c-0.6-1.2-1-2-1.3-2.4c-0.3-0.3-0.8-0.6-1.4-0.6c-1-0.1-1.4-0.3-1.4-0.6c0-0.2,0.3-0.3,0.7-0.3l0.7,0l3.4,0.1
		c0.5,0,1.1,0,1.7-0.1c0.4,0,0.6-0.1,0.8-0.1c0.4,0,0.6,0.1,0.6,0.4c0,0.2-0.2,0.4-0.6,0.5c-0.6,0.2-0.8,0.6-0.8,1.1
		c0,0.4,0.2,1.2,0.6,2.2l1.9,4.4c0.2-0.4,0.3-0.6,0.4-0.8c1.3-3,2-5,2-5.9c0-0.5-0.4-0.9-1.2-1c-0.6-0.1-0.8-0.3-0.8-0.6
		c0-0.2,0.2-0.3,0.6-0.3c0.1,0,0.3,0,0.7,0c0.5,0,1.1,0,1.8,0c0.7,0,1.3,0,1.7-0.1c0.3,0,0.6-0.1,0.7-0.1c0.4,0,0.5,0.1,0.5,0.4
		c0,0.2-0.2,0.4-0.6,0.5c-0.4,0.1-0.8,0.4-1,0.6c-0.2,0.3-0.6,1.1-1.1,2.3L85.4,138.7z"/>
	<path class="st0" d="M106.6,133.3v13.2c0,1.6,0.1,2.7,0.3,3.3c0.2,0.6,0.5,1,0.9,1.3c0.3,0.2,0.9,0.4,1.6,0.5
		c0.6,0.1,0.9,0.2,0.9,0.4c0,0.3-0.2,0.4-0.5,0.4c-0.2,0-0.4,0-0.7-0.1c-0.4-0.1-1-0.1-1.9-0.1l-2.5,0l-2.1,0.1
		c-0.3,0-0.6,0.1-0.8,0.1c-0.3,0-0.5-0.1-0.5-0.4c0-0.2,0.2-0.3,0.5-0.4c0.9-0.2,1.5-0.5,1.7-0.9c0.3-0.5,0.4-1.4,0.4-2.9v-15.1
		c0-1.5-0.2-2.4-0.5-2.9c-0.3-0.5-1-0.8-2.1-1c-0.4-0.1-0.6-0.2-0.6-0.4c0-0.3,0.2-0.4,0.5-0.4c0.1,0,0.2,0,0.3,0
		c0.9,0.1,2,0.2,3.4,0.2c0.9,0,1.6,0,2.2-0.1l1.2-0.1c0.2,0,0.4,0,0.4,0c0.3,0,0.5,0.1,0.5,0.3c0,0.2-0.2,0.4-0.5,0.5l-0.9,0.4
		C107,129.5,106.6,130.9,106.6,133.3z"/>
	<path class="st0" d="M132.5,134.9v14.7c0,1.3,0,2.1-0.1,2.4s-0.2,0.4-0.5,0.4c-0.2,0-0.3-0.1-0.4-0.2l-0.4-0.5l-14.8-16.9l-0.2-0.2
		c-0.1-0.1-0.2-0.1-0.2-0.1c-0.2,0-0.3,0.3-0.3,0.8v11.9l0,0.7l0.1,1.2c0.1,0.8,0.3,1.3,0.6,1.6c0.3,0.3,0.9,0.5,1.9,0.7
		c0.4,0,0.6,0.2,0.6,0.4c0,0.2-0.1,0.3-0.4,0.3c-0.2,0-0.3,0-0.5,0c-0.1,0-0.6-0.1-1.5-0.1l-1.8-0.1l-0.8,0c-0.5,0-0.9,0-1.3,0.1
		c-0.3,0-0.5,0.1-0.7,0.1c-0.3,0-0.5-0.1-0.5-0.3c0-0.2,0.2-0.3,0.5-0.4c1-0.3,1.6-0.8,2-1.4c0.3-0.6,0.5-1.5,0.5-2.8v-12
		c0-2-0.3-3.6-1-4.8c-0.6-1.2-1.6-1.8-2.8-2c-0.3,0-0.5-0.2-0.5-0.4c0-0.2,0.1-0.3,0.4-0.3c0.1,0,0.2,0,0.3,0l0.7,0l1.2,0l0.3,0
		c0.3,0,0.5,0,0.7,0c0.3,0,0.6,0.2,0.9,0.5l16.2,18.3c0.3,0.3,0.4,0.4,0.5,0.4c0.1,0,0.2-0.1,0.2-0.3v-8.7l0-2.4l-0.2-4
		c-0.1-1-0.4-1.7-0.9-2.1s-1.3-0.7-2.5-0.9c-0.3-0.1-0.5-0.2-0.5-0.4c0-0.2,0.2-0.3,0.5-0.3c0.2,0,0.4,0,0.7,0
		c0.8,0.1,1.9,0.1,3.3,0.1c0.7,0,1.3,0,1.7-0.1c0.4-0.1,0.7-0.1,0.9-0.1c0.3,0,0.5,0.1,0.5,0.4c0,0.2-0.1,0.3-0.4,0.3
		c-0.7,0.2-1.2,0.5-1.4,0.9s-0.3,1.2-0.3,2.3v1.9L132.5,134.9z"/>
	<path class="st0" d="M154.8,146.3v-4c0-0.7-0.2-1.2-0.5-1.5s-0.9-0.4-1.9-0.5c-0.5,0-0.7-0.2-0.7-0.4c0-0.2,0.2-0.3,0.6-0.3l0.7,0
		l1.3,0c1.8,0,2.9,0,3.2,0c0.8-0.1,1.3-0.1,1.4-0.1c0.3,0,0.4,0.1,0.4,0.3c0,0.2-0.2,0.3-0.5,0.4c-0.9,0.2-1.3,0.9-1.3,1.9l0,0.6
		v5.6l0,0.6l-0.1,0.3c-0.1,0.1-0.2,0.1-0.5,0.1c-0.3,0-0.8,0.3-1.5,0.6l-1.2,0.7c-2.3,1.3-4.7,2-7.4,2c-3.5,0-6.4-1.1-8.6-3.4
		s-3.4-5.1-3.4-8.7c0-3.7,1.2-6.8,3.6-9.2s5.4-3.7,9-3.7c1.4,0,2.9,0.2,4.4,0.6c1.6,0.4,2.8,0.9,3.7,1.5c0.1,0.1,0.2,0.1,0.3,0.1
		c0.1,0,0.2,0,0.3-0.1l0.4-0.3c0.1-0.1,0.2-0.1,0.2-0.1c0.2,0,0.3,0.3,0.3,0.8c0,0.3,0,0.7,0.1,1.2l0.2,1.7c0.1,0.4,0.1,0.9,0.2,1.3
		c0.1,0.2,0.1,0.4,0.1,0.5c0,0.3-0.1,0.4-0.4,0.4c-0.2,0-0.3-0.1-0.4-0.3c-0.9-1.9-2.3-3.4-4.2-4.6s-3.9-1.8-6-1.8
		c-2.7,0-4.8,1-6.5,3c-1.7,2-2.5,4.6-2.5,7.8c0,3.4,1,6.3,2.9,8.6c1.9,2.3,4.3,3.4,7.2,3.4c2.7,0,4.8-1,6.4-2.9
		C154.6,148.2,154.8,147.4,154.8,146.3z"/>
</g>
<g>
	<path class="st0" d="M76.6,55.7V43.8c0-2.1-0.5-3.6-1.4-4.4c-0.9-0.8-2.8-1.3-5.6-1.5c-1.4-0.1-2.1-0.6-2.1-1.3c0-0.7,0.6-1,1.8-1
		l2.1,0.1l4,0.1c5.4,0,8.6,0,9.5-0.1c2.4-0.2,3.8-0.3,4.2-0.3c0.8,0,1.2,0.3,1.2,1c0,0.6-0.5,1-1.6,1.3c-2.7,0.6-4,2.6-4,5.8
		l0.1,1.7v16.9l0.1,1.7l-0.3,0.8c-0.2,0.2-0.7,0.3-1.5,0.4c-0.9,0.1-2.4,0.8-4.4,1.9l-3.5,2.1c-6.9,4-14.2,6-22.1,6
		c-10.5,0-19.2-3.4-25.9-10.2C20.3,58,17,49.3,17,38.8c0-11.1,3.6-20.3,10.7-27.7S43.8,0,54.6,0c4.1,0,8.6,0.6,13.2,1.8
		c4.7,1.2,8.4,2.7,11.2,4.5c0.4,0.3,0.7,0.4,0.9,0.4c0.2,0,0.6-0.1,1-0.4l1.3-0.9C82.3,5.1,82.6,5,82.8,5c0.6,0,0.9,0.8,0.9,2.5
		c0,0.8,0.1,2,0.3,3.6l0.5,5c0.2,1.3,0.4,2.7,0.7,4c0.2,0.6,0.3,1.1,0.3,1.5c0,0.8-0.4,1.3-1.1,1.3c-0.5,0-0.8-0.3-1.2-0.9
		c-2.7-5.6-7-10.2-12.7-13.7C65,4.8,59,3.1,52.6,3.1c-8,0-14.4,3-19.5,9.1c-5,6-7.5,13.8-7.5,23.4c0,10.2,2.9,18.8,8.7,25.7
		c5.8,6.9,12.9,10.3,21.5,10.3c8.2,0,14.5-2.9,19.1-8.6C76,61.5,76.6,59.1,76.6,55.7z"/>
	<path class="st0" d="M106.6,74.8l16,23.6l1.9,2.8c5,7.2,9.5,11,13.7,11.3l1.9,0.1c0.7,0,1,0.3,1,0.8c0,0.6-0.9,1.1-2.6,1.6
		c-1.7,0.5-3.6,0.7-5.7,0.7c-3.5,0-6.6-1-9.4-2.9c-2.8-1.9-5.6-5-8.4-9.4l-14.4-22l-0.8-1.3c-0.9-1.6-2.4-2.4-4.5-2.4h-7.7L86.1,78
		c-0.5,0.3-0.7,0.9-0.7,1.9v18.2l0.1,2.3c0,3.3,0.2,5.6,0.5,6.8c0.3,1.2,1.1,2.3,2.4,3.3c1.7,1.3,4.2,2.2,7.7,2.5
		c1.4,0.2,2.1,0.6,2.1,1.3c0.1,0.8-0.6,1.1-1.9,1.1c-0.5,0-1.7-0.1-3.4-0.3c-1.6-0.2-4-0.3-7.4-0.3l-5.6-0.1l-3,0.1
		c-1.3,0-2.9,0.1-4.8,0.3c-1.5,0.2-2.6,0.2-3.1,0.2c-1,0-1.5-0.4-1.5-1.2c0-0.6,0.5-0.9,1.5-1.1c3.1-0.6,5.1-2,6.1-4.2
		c1-2.2,1.5-6.6,1.5-13.2V54l-0.1-6c0-6-2.1-9.4-6.3-10.1l-2.7-0.4c-1.2-0.2-1.9-0.7-1.9-1.4c0-0.8,0.7-1.2,2-1.2
		c0.3,0,1.7,0.1,4.1,0.2c1.4,0.1,3.1,0.2,5.2,0.2c1.8,0,4.8-0.1,9.1-0.4c3.1-0.2,5.8-0.3,8.2-0.3c8.9,0,15.6,1.7,20.1,5
		c4.5,3.3,6.8,8.3,6.8,15C120.9,63.3,116.1,70.1,106.6,74.8z M89.5,73.6h6.6c5.1,0,9.1-1.4,12-4.2c2.9-2.8,4.4-6.6,4.4-11.5
		c0-5.6-2-10.3-5.9-13.9c-4-3.6-9-5.4-15.1-5.4c-2.3,0-3.9,0.4-4.7,1.1c-0.9,0.8-1.3,2.1-1.3,4.1l0.1,1.9v23.6c0,1.8,0.2,3,0.7,3.5
		C86.6,73.3,87.7,73.6,89.5,73.6z"/>
</g>
</svg>
