<?xml version="1.0" encoding="utf-8"?>
<!-- Generator: Adobe Illustrator 24.2.3, SVG Export Plug-In . SVG Version: 6.00 Build 0)  -->
<svg version="1.1" id="レイヤー_1" xmlns="http://www.w3.org/2000/svg" xmlns:xlink="http://www.w3.org/1999/xlink" x="0px"
	 y="0px" viewBox="0 0 352.5 92.6" style="enable-background:new 0 0 352.5 92.6;" xml:space="preserve">
<style type="text/css">
	.st0{fill:#004097;}
</style>
<g>
	<path class="st0" d="M129.3,58.2v-6.3c0-1.1-0.2-1.9-0.7-2.3c-0.5-0.4-1.5-0.7-3-0.8c-0.7-0.1-1.1-0.3-1.1-0.7c0-0.3,0.3-0.5,1-0.5
		l1.1,0l2.1,0c2.9,0,4.6,0,5-0.1c1.3-0.1,2-0.1,2.3-0.1c0.4,0,0.6,0.2,0.6,0.5c0,0.3-0.3,0.5-0.8,0.7c-1.4,0.3-2.1,1.4-2.1,3.1
		l0,0.9v9l0.1,0.9l-0.2,0.4c-0.1,0.1-0.4,0.2-0.8,0.2c-0.5,0.1-1.3,0.4-2.3,1l-1.9,1.1c-3.7,2.1-7.6,3.2-11.8,3.2
		c-5.6,0-10.2-1.8-13.8-5.4c-3.6-3.6-5.4-8.2-5.4-13.9c0-5.9,1.9-10.8,5.7-14.8s8.6-5.9,14.3-5.9c2.2,0,4.6,0.3,7,1
		c2.5,0.6,4.5,1.4,5.9,2.4c0.2,0.2,0.4,0.2,0.5,0.2c0.1,0,0.3-0.1,0.5-0.2l0.7-0.5c0.1-0.1,0.3-0.2,0.4-0.2c0.3,0,0.5,0.4,0.5,1.3
		c0,0.4,0.1,1.1,0.2,1.9l0.3,2.6c0.1,0.7,0.2,1.4,0.4,2.1c0.1,0.3,0.1,0.6,0.1,0.8c0,0.5-0.2,0.7-0.6,0.7c-0.2,0-0.5-0.1-0.6-0.5
		c-1.5-3-3.7-5.4-6.8-7.3c-3-1.9-6.3-2.8-9.7-2.8c-4.2,0-7.7,1.6-10.4,4.8c-2.7,3.2-4,7.4-4,12.5c0,5.5,1.5,10,4.6,13.7
		c3.1,3.7,6.9,5.5,11.5,5.5c4.3,0,7.8-1.5,10.2-4.6C129,61.3,129.3,60.1,129.3,58.2z"/>
	<path class="st0" d="M155.9,48.4l7.8,11.4l0.9,1.3c2.4,3.5,4.6,5.3,6.6,5.5l0.9,0.1c0.3,0,0.5,0.2,0.5,0.4c0,0.3-0.4,0.5-1.3,0.8
		c-0.8,0.2-1.7,0.3-2.8,0.3c-1.7,0-3.2-0.5-4.5-1.4c-1.3-0.9-2.7-2.4-4.1-4.5l-7-10.7l-0.4-0.6c-0.5-0.8-1.2-1.2-2.2-1.2h-3.7
		l-0.6,0.1c-0.2,0.1-0.3,0.4-0.3,0.9v8.8l0,1.1c0,1.6,0.1,2.7,0.2,3.3c0.2,0.6,0.5,1.1,1.1,1.6c0.8,0.6,2.1,1,3.7,1.2
		c0.7,0.1,1,0.3,1,0.6c0,0.4-0.3,0.5-0.9,0.5c-0.3,0-0.8,0-1.7-0.1c-0.8-0.1-2-0.1-3.6-0.1l-2.7,0l-1.5,0c-0.6,0-1.4,0-2.3,0.1
		c-0.7,0.1-1.2,0.1-1.5,0.1c-0.5,0-0.7-0.2-0.7-0.6c0-0.3,0.2-0.5,0.7-0.5c1.5-0.3,2.5-1,3-2c0.5-1.1,0.7-3.2,0.7-6.4V38.3l-0.1-2.9
		c0-2.9-1-4.6-3.1-4.9l-1.3-0.2c-0.6-0.1-0.9-0.3-0.9-0.7c0-0.4,0.3-0.6,1-0.6c0.1,0,0.8,0,2,0.1c0.7,0.1,1.5,0.1,2.5,0.1
		c0.9,0,2.3-0.1,4.4-0.2c1.5-0.1,2.8-0.1,4-0.1c4.3,0,7.6,0.8,9.8,2.4c2.2,1.6,3.3,4,3.3,7.2C162.8,42.8,160.5,46.1,155.9,48.4z
		 M147.6,47.8h3.2c2.5,0,4.4-0.7,5.8-2s2.1-3.2,2.1-5.6c0-2.7-1-5-2.9-6.7c-1.9-1.8-4.4-2.6-7.3-2.6c-1.1,0-1.9,0.2-2.3,0.6
		s-0.6,1-0.6,2l0,0.9v11.5c0,0.9,0.1,1.4,0.4,1.7C146.2,47.7,146.7,47.8,147.6,47.8z"/>
	<path class="st0" d="M187.6,28.5c5.9,0,10.7,1.8,14.4,5.4c3.8,3.6,5.6,8.3,5.6,13.9c0,6-1.9,10.9-5.7,14.8
		c-3.8,3.8-8.6,5.8-14.5,5.8c-6.1,0-11-1.8-14.7-5.5c-3.7-3.7-5.6-8.5-5.6-14.4c0-2.6,0.5-5.1,1.5-7.7s2.3-4.7,4-6.4
		c1.8-1.8,4-3.2,6.7-4.3C182,29.1,184.8,28.5,187.6,28.5z M185.8,30.4c-4.4,0-7.8,1.5-10.4,4.4c-2.6,2.9-3.8,6.9-3.8,11.8
		c0,5.7,1.6,10.5,4.9,14.4c3.3,3.9,7.3,5.8,12.1,5.8c4.4,0,7.9-1.6,10.8-4.8c2.8-3.2,4.3-7.2,4.3-12.1c0-5.6-1.7-10.3-5.1-14
		S190.9,30.4,185.8,30.4z"/>
	<path class="st0" d="M234.1,46l5.6,13.3c0.6,1.5,1.1,2.2,1.3,2.2c0.2,0,0.6-0.4,0.9-1.3c0.1-0.3,0.3-0.8,0.7-1.6
		c2.5-5.5,4.8-11,6.9-16.6c2.1-5.6,3.2-8.9,3.2-9.9c0-0.9-0.8-1.5-2.4-1.8c-0.9-0.2-1.3-0.5-1.3-0.9c0-0.4,0.3-0.6,0.8-0.6
		c0.1,0,0.3,0,0.5,0c0.8,0.1,1.9,0.1,3.4,0.1c1.7,0,3-0.1,3.8-0.2c0.6-0.1,1.1-0.1,1.3-0.1c0.4,0,0.6,0.2,0.6,0.6
		c0,0.3-0.3,0.6-0.8,0.8c-0.8,0.3-1.3,0.9-1.7,1.7l-1.5,3.3c-0.6,1.4-1.6,3.7-3,6.8c-1.4,3.3-2.4,5.8-3.2,7.5l-3.4,7.6l-2.2,5.3
		l-1.3,3.1l-0.6,1.4l-0.4,0.8c-0.5,1-1,1.5-1.4,1.5c-0.4,0-0.8-0.4-1.2-1.3l-7-16.3l-7,16.8c-0.3,0.8-0.7,1.2-1,1.2
		c-0.5,0-1-0.8-1.6-2.2l-11.6-27.8l-0.7-1.9c-1-2.6-1.9-4.3-2.7-5.3s-1.7-1.6-2.9-1.9l-1.2-0.3c-0.4-0.1-0.6-0.3-0.6-0.7
		c0-0.4,0.3-0.7,0.8-0.7c0.2,0,0.4,0,0.7,0.1c0.7,0.1,1.7,0.1,2.8,0.1l3.5,0l2.4-0.1c1-0.1,1.5-0.1,1.7-0.1c0.5,0,0.8,0.2,0.8,0.7
		c0,0.3-0.2,0.6-0.6,0.7c-1.2,0.3-1.8,0.9-1.8,1.6c0,0.9,0.7,2.9,2,6.1c0.6,1.4,1.6,3.9,3,7.3c1.3,3.3,2.3,5.7,2.9,6.9l2.7,6.1
		c0.3,0.7,0.5,1.1,0.6,1.4l0.3,0.6c0.2,0.4,0.4,0.6,0.5,0.6c0.1,0,0.3-0.3,0.6-0.9l0.1-0.3l4.8-11.3c-0.4-0.9-0.6-1.5-0.7-1.7
		l-2.5-5.9l-2.3-5.5c-0.9-2-1.6-3.3-2-3.8c-0.5-0.5-1.2-0.9-2.2-1c-1.5-0.2-2.3-0.5-2.2-1c0-0.4,0.4-0.6,1.2-0.6l1.1,0l5.5,0.2
		c0.8,0,1.7-0.1,2.8-0.2c0.6-0.1,1-0.1,1.2-0.1c0.7,0,1,0.2,1,0.7c0,0.3-0.3,0.6-0.9,0.8c-0.9,0.4-1.3,1-1.3,1.8
		c0,0.7,0.3,1.9,1,3.5l3,7.1c0.2-0.6,0.4-1,0.6-1.3c2.2-4.8,3.2-7.9,3.2-9.4c0-0.9-0.6-1.4-1.9-1.6c-0.9-0.2-1.3-0.5-1.3-0.9
		c0-0.4,0.3-0.6,1-0.6c0.1,0,0.5,0,1.1,0c0.8,0,1.8,0.1,2.9,0.1c1.2,0,2.1,0,2.7-0.1c0.5-0.1,0.9-0.1,1.2-0.1c0.6,0,0.8,0.2,0.8,0.7
		c0,0.3-0.3,0.6-1,0.7c-0.7,0.2-1.2,0.6-1.6,1c-0.3,0.5-0.9,1.7-1.8,3.7L234.1,46z"/>
	<path class="st0" d="M268.1,37.5v21.1c0,2.6,0.2,4.4,0.5,5.2c0.4,1,0.8,1.6,1.4,2c0.6,0.4,1.4,0.7,2.6,0.8c0.9,0.1,1.4,0.4,1.4,0.7
		c0,0.4-0.3,0.7-0.9,0.7c-0.3,0-0.6,0-1.1-0.1c-0.6-0.1-1.6-0.1-3-0.1l-4.1-0.1l-3.3,0.2c-0.5,0.1-1,0.1-1.3,0.1
		c-0.5,0-0.8-0.2-0.8-0.6c0-0.3,0.3-0.5,0.9-0.6c1.4-0.2,2.3-0.7,2.8-1.5s0.6-2.3,0.6-4.7V36.5c0-2.3-0.3-3.9-0.8-4.7
		c-0.5-0.8-1.7-1.4-3.4-1.6c-0.6-0.1-0.9-0.3-0.9-0.7c0-0.4,0.3-0.6,0.8-0.6c0.1,0,0.3,0,0.5,0c1.4,0.2,3.2,0.2,5.5,0.2
		c1.4,0,2.6,0,3.6-0.1l1.9-0.2c0.4,0,0.6,0,0.7,0c0.5,0,0.8,0.2,0.8,0.5c0,0.3-0.2,0.6-0.7,0.7l-1.5,0.6
		C268.8,31.3,268.1,33.5,268.1,37.5z"/>
	<path class="st0" d="M309.6,40.1v23.6c0,2.1,0,3.4-0.1,3.9c-0.1,0.5-0.4,0.7-0.8,0.7c-0.3,0-0.5-0.1-0.6-0.3l-0.6-0.7l-23.7-27.1
		l-0.3-0.3c-0.1-0.1-0.2-0.2-0.4-0.2c-0.4,0-0.5,0.4-0.5,1.3v19.1l0,1.2l0.1,2c0.1,1.2,0.5,2.1,1,2.6c0.5,0.5,1.5,0.8,3,1
		c0.6,0.1,0.9,0.3,0.9,0.7c0,0.4-0.2,0.6-0.6,0.6c-0.3,0-0.5,0-0.8-0.1c-0.2,0-1-0.1-2.4-0.2l-2.9-0.1l-1.3,0.1
		c-0.7,0-1.4,0-2.1,0.1c-0.5,0.1-0.8,0.1-1,0.1c-0.5,0-0.8-0.2-0.8-0.5c0-0.3,0.2-0.5,0.8-0.7c1.6-0.5,2.6-1.3,3.2-2.2
		c0.6-0.9,0.8-2.4,0.8-4.4V41c0-3.2-0.5-5.8-1.5-7.7c-1-1.9-2.5-2.9-4.5-3.2c-0.5-0.1-0.8-0.3-0.8-0.6c0-0.3,0.2-0.5,0.6-0.5
		c0.1,0,0.2,0,0.5,0l1.2,0l1.9,0.1l0.4,0c0.5,0,0.8,0,1,0c0.5,0,0.9,0.3,1.4,0.8l25.9,29.3c0.4,0.5,0.7,0.7,0.8,0.7
		c0.2,0,0.3-0.2,0.3-0.5V45.4l0-3.8l-0.3-6.5c-0.2-1.6-0.7-2.7-1.4-3.4c-0.7-0.7-2.1-1.2-4-1.5c-0.5-0.1-0.8-0.3-0.8-0.7
		c0-0.3,0.3-0.5,0.8-0.5c0.2,0,0.6,0,1.2,0.1c1.3,0.1,3,0.2,5.2,0.2c1.2,0,2.1-0.1,2.8-0.2c0.6-0.1,1.1-0.2,1.4-0.2
		c0.5,0,0.7,0.2,0.8,0.6c0,0.2-0.2,0.4-0.6,0.5c-1.1,0.3-1.9,0.8-2.3,1.4c-0.4,0.7-0.5,1.9-0.5,3.7v3L309.6,40.1z"/>
	<path class="st0" d="M345.3,58.2v-6.3c0-1.1-0.2-1.9-0.7-2.3c-0.5-0.4-1.5-0.7-3-0.8c-0.7-0.1-1.1-0.3-1.1-0.7c0-0.3,0.3-0.5,1-0.5
		l1.1,0l2.1,0c2.9,0,4.6,0,5-0.1c1.3-0.1,2-0.1,2.3-0.1c0.4,0,0.6,0.2,0.6,0.5c0,0.3-0.3,0.5-0.8,0.7c-1.4,0.3-2.1,1.4-2.1,3.1
		l0,0.9v9l0.1,0.9l-0.2,0.4c-0.1,0.1-0.4,0.2-0.8,0.2c-0.5,0.1-1.3,0.4-2.3,1l-1.9,1.1c-3.7,2.1-7.6,3.2-11.8,3.2
		c-5.6,0-10.2-1.8-13.8-5.4c-3.6-3.6-5.4-8.2-5.4-13.9c0-5.9,1.9-10.8,5.7-14.8s8.6-5.9,14.3-5.9c2.2,0,4.6,0.3,7,1
		c2.5,0.6,4.5,1.4,5.9,2.4c0.2,0.2,0.4,0.2,0.5,0.2c0.1,0,0.3-0.1,0.5-0.2l0.7-0.5c0.1-0.1,0.3-0.2,0.4-0.2c0.3,0,0.5,0.4,0.5,1.3
		c0,0.4,0.1,1.1,0.2,1.9l0.3,2.6c0.1,0.7,0.2,1.4,0.4,2.1c0.1,0.3,0.1,0.6,0.1,0.8c0,0.5-0.2,0.7-0.6,0.7c-0.2,0-0.5-0.1-0.6-0.5
		c-1.5-3-3.7-5.4-6.8-7.3c-3-1.9-6.3-2.8-9.7-2.8c-4.2,0-7.7,1.6-10.4,4.8c-2.7,3.2-4,7.4-4,12.5c0,5.5,1.5,10,4.6,13.7
		c3.1,3.7,6.9,5.5,11.5,5.5c4.3,0,7.8-1.5,10.2-4.6C345,61.3,345.3,60.1,345.3,58.2z"/>
</g>
<g>
	<path class="st0" d="M47.7,44.5v-9.5c0-1.7-0.4-2.9-1.1-3.5c-0.7-0.6-2.2-1-4.5-1.2c-1.1-0.1-1.7-0.5-1.7-1.1
		c0-0.5,0.5-0.8,1.4-0.8l1.7,0l3.2,0c4.3,0,6.9,0,7.6-0.1c1.9-0.1,3.1-0.2,3.4-0.2c0.6,0,1,0.3,1,0.8c0,0.5-0.4,0.8-1.3,1
		c-2.1,0.5-3.2,2.1-3.2,4.6l0,1.4v13.5l0.1,1.4L54,51.6c-0.2,0.1-0.6,0.3-1.2,0.3c-0.8,0.1-1.9,0.6-3.5,1.5l-2.8,1.6
		c-5.5,3.2-11.4,4.8-17.7,4.8c-8.4,0-15.4-2.7-20.8-8.1C2.7,46.4,0,39.4,0,31c0-8.9,2.9-16.2,8.6-22.1C14.3,3,21.5,0,30.1,0
		c3.3,0,6.8,0.5,10.6,1.4c3.7,1,6.7,2.2,8.9,3.6c0.3,0.2,0.6,0.3,0.7,0.3c0.2,0,0.5-0.1,0.8-0.3l1-0.8C52.3,4.1,52.5,4,52.7,4
		c0.5,0,0.8,0.7,0.8,2c0,0.6,0.1,1.6,0.3,2.9l0.4,4c0.1,1.1,0.3,2.1,0.6,3.2c0.1,0.5,0.2,0.9,0.2,1.2c0,0.7-0.3,1-0.8,1.1
		c-0.4,0-0.7-0.2-0.9-0.7C51,13.1,47.6,9.5,43,6.7c-4.6-2.8-9.4-4.2-14.5-4.2C22.2,2.4,17,4.9,13,9.7c-4,4.8-6,11.1-6,18.7
		c0,8.2,2.3,15.1,6.9,20.6s10.4,8.3,17.2,8.3c6.5,0,11.6-2.3,15.3-6.9C47.3,49.2,47.7,47.3,47.7,44.5z"/>
	<path class="st0" d="M71.7,59.9l12.8,18.9L86,81c4,5.8,7.6,8.8,11,9l1.5,0.1c0.6,0,0.8,0.3,0.8,0.7c0,0.5-0.7,0.9-2.1,1.3
		c-1.3,0.4-2.9,0.6-4.6,0.6c-2.8,0-5.3-0.8-7.5-2.3c-2.2-1.5-4.5-4-6.8-7.5L66.8,65.2l-0.6-1c-0.7-1.3-1.9-1.9-3.6-1.9h-6.2l-1,0.2
		c-0.4,0.2-0.6,0.7-0.6,1.5v14.5l0,1.9c0,2.7,0.1,4.5,0.4,5.5c0.3,1,0.9,1.9,1.9,2.6c1.3,1.1,3.4,1.7,6.2,2c1.1,0.1,1.7,0.5,1.7,1
		c0.1,0.6-0.5,0.9-1.5,0.9c-0.4,0-1.3-0.1-2.7-0.2c-1.3-0.1-3.2-0.2-5.9-0.2l-4.5-0.1l-2.4,0c-1.1,0-2.3,0.1-3.8,0.2
		c-1.2,0.1-2,0.2-2.5,0.2c-0.8,0-1.2-0.3-1.2-1c0-0.5,0.4-0.8,1.2-0.9c2.5-0.5,4.1-1.6,4.9-3.4c0.8-1.8,1.2-5.3,1.2-10.5V43.2
		l-0.1-4.8c0-4.8-1.7-7.5-5.1-8.1L40.3,30c-1-0.2-1.5-0.5-1.5-1.1c0-0.6,0.5-1,1.6-1c0.2,0,1.3,0.1,3.2,0.2c1.1,0.1,2.5,0.1,4.1,0.1
		c1.4,0,3.9-0.1,7.3-0.3c2.5-0.2,4.7-0.2,6.5-0.2c7.1,0,12.5,1.3,16.1,4c3.6,2.7,5.4,6.7,5.4,12C83.1,50.7,79.3,56.1,71.7,59.9z
		 M58,58.9h5.3c4.1,0,7.3-1.1,9.6-3.4c2.3-2.2,3.5-5.3,3.5-9.2c0-4.5-1.6-8.2-4.7-11.1c-3.2-2.9-7.2-4.4-12.1-4.4
		c-1.8,0-3.1,0.3-3.8,0.9c-0.7,0.6-1,1.7-1,3.3l0,1.5v18.9c0,1.5,0.2,2.4,0.6,2.8C55.7,58.7,56.6,58.9,58,58.9z"/>
</g>
</svg>
